<svg width="106" height="147" viewBox="0 0 106 147" fill="none" xmlns="http://www.w3.org/2000/svg">
<path d="M52.8207 51.9155C62.6738 107.299 40.4269 146.525 40.4269 146.525H59.0177C70.6679 104.315 65.2146 74.4036 62.1161 59.1932L52.8207 51.9155ZM75.5015 38.5246C76.5549 40.0529 77.6084 41.654 78.414 43.3279C83.4633 52.7022 85.81 63.7359 85.1069 74.7975C84.4038 85.8591 80.6884 96.3615 74.5099 104.751C77.1872 97.1292 78.2748 88.866 77.6819 80.6501C77.089 72.4343 74.833 64.5038 71.1016 57.5194C70.6059 56.5733 70.0482 55.7727 69.5524 54.8994C65.9892 49.0586 61.431 44.1515 56.1671 40.4896C47.2439 43.8342 39.4573 50.424 33.9322 59.3066C28.4072 68.1893 25.4298 78.9048 25.4304 89.905C25.4304 95.2905 26.112 100.458 27.3514 105.261C21.9783 96.4833 19.0947 85.9417 19.1095 75.1313C19.1095 58.0288 26.174 42.8912 37.0186 33.4302C28.0331 32.6297 18.4898 34.9586 10.186 40.999C6.34389 43.9829 2.99755 47.4034 0.146973 51.2605C3.55528 41.5812 9.44235 32.9208 17.4983 26.9531C26.7937 20.1121 37.3285 17.856 47.4914 19.6027C44.9507 15.5272 41.8522 11.67 38.1341 8.24948C34.5398 5.19285 30.6358 2.71844 26.5458 0.971802C35.4694 1.26291 44.3929 4.61064 52.0151 11.3789C55.9192 14.7994 59.0177 18.9477 61.4964 23.3143C62.1161 23.3143 62.6738 23.2415 63.2935 23.2415C83.1237 23.2415 99.9173 38.5974 105.495 59.7754C102.008 54.0018 97.5448 49.1347 92.3842 45.4783C87.2236 41.8219 81.4763 39.4547 75.5015 38.5246V38.5246Z" fill="black"/>
</svg>
