<svg width="271" height="42" viewBox="0 0 271 42" fill="none" xmlns="http://www.w3.org/2000/svg">
<path d="M17.1607 2.63962C17.7109 0.992524 19.7929 0.992524 20.3448 2.63962L23.9036 13.8297C24.1529 14.5713 24.7873 15.065 25.4957 15.065H34.2415C35.8576 15.065 36.5625 17.3483 35.2919 18.4665L29.0683 24.8227C28.7895 25.0659 28.5857 25.4032 28.4863 25.786C28.3868 26.1689 28.3968 26.5777 28.5147 26.9537L30.7875 37.8881C31.3411 39.6445 29.5496 41.1531 28.1949 40.0719L19.7413 33.9831C19.4518 33.7522 19.1066 33.6283 18.7528 33.6283C18.3989 33.6283 18.0537 33.7522 17.7642 33.9831L9.31067 40.0719C7.95762 41.1531 6.16444 39.6426 6.71804 37.8881L8.99089 26.9537C9.10879 26.5777 9.11872 26.1689 9.01927 25.786C8.91981 25.4032 8.71607 25.0659 8.43729 24.8227L2.21361 18.4665C0.941368 17.3483 1.6497 15.065 3.26235 15.065H12.0082C12.3525 15.0663 12.6891 14.9489 12.9734 14.7283C13.2577 14.5077 13.4762 14.1944 13.6002 13.8297L17.159 2.63962H17.1607Z" stroke="#FFFF00" stroke-width="2" stroke-linecap="round" stroke-linejoin="round"/>
<path d="M250.706 2.63962C251.256 0.992524 253.338 0.992524 253.89 2.63962L257.449 13.8297C257.698 14.5713 258.333 15.065 259.041 15.065H267.787C269.403 15.065 270.108 17.3483 268.837 18.4665L262.614 24.8227C262.335 25.0659 262.131 25.4032 262.032 25.786C261.932 26.1689 261.942 26.5777 262.06 26.9537L264.333 37.8881C264.887 39.6445 263.095 41.1531 261.74 40.0719L253.287 33.9831C252.997 33.7522 252.652 33.6283 252.298 33.6283C251.944 33.6283 251.599 33.7522 251.31 33.9831L242.856 40.0719C241.503 41.1531 239.71 39.6426 240.263 37.8881L242.536 26.9537C242.654 26.5777 242.664 26.1689 242.565 25.786C242.465 25.4032 242.261 25.0659 241.983 24.8227L235.759 18.4665C234.487 17.3483 235.195 15.065 236.808 15.065H245.554C245.898 15.0663 246.235 14.9489 246.519 14.7283C246.803 14.5077 247.022 14.1944 247.146 13.8297L250.704 2.63962H250.706Z" stroke="white" stroke-width="2" stroke-linecap="round" stroke-linejoin="round"/>
<path d="M192.32 2.63962C192.87 0.992524 194.952 0.992524 195.504 2.63962L199.063 13.8297C199.312 14.5713 199.946 15.065 200.655 15.065H209.4C211.017 15.065 211.721 17.3483 210.451 18.4665L204.227 24.8227C203.948 25.0659 203.745 25.4032 203.645 25.786C203.546 26.1689 203.556 26.5777 203.674 26.9537L205.946 37.8881C206.5 39.6445 204.709 41.1531 203.354 40.0719L194.9 33.9831C194.611 33.7522 194.266 33.6283 193.912 33.6283C193.558 33.6283 193.213 33.7522 192.923 33.9831L184.47 40.0719C183.117 41.1531 181.323 39.6426 181.877 37.8881L184.15 26.9537C184.268 26.5777 184.278 26.1689 184.178 25.786C184.079 25.4032 183.875 25.0659 183.596 24.8227L177.373 18.4665C176.1 17.3483 176.809 15.065 178.421 15.065H187.167C187.511 15.0663 187.848 14.9489 188.132 14.7283C188.417 14.5077 188.635 14.1944 188.759 13.8297L192.318 2.63962H192.32Z" stroke="#FFFF00" stroke-width="2" stroke-linecap="round" stroke-linejoin="round"/>
<path d="M133.933 2.63962C134.483 0.992524 136.565 0.992524 137.117 2.63962L140.676 13.8297C140.925 14.5713 141.56 15.065 142.268 15.065H151.014C152.63 15.065 153.335 17.3483 152.064 18.4665L145.841 24.8227C145.562 25.0659 145.358 25.4032 145.259 25.786C145.159 26.1689 145.169 26.5777 145.287 26.9537L147.56 37.8881C148.114 39.6445 146.322 41.1531 144.967 40.0719L136.514 33.9831C136.224 33.7522 135.879 33.6283 135.525 33.6283C135.171 33.6283 134.826 33.7522 134.537 33.9831L126.083 40.0719C124.73 41.1531 122.937 39.6426 123.491 37.8881L125.763 26.9537C125.881 26.5777 125.891 26.1689 125.792 25.786C125.692 25.4032 125.489 25.0659 125.21 24.8227L118.986 18.4665C117.714 17.3483 118.422 15.065 120.035 15.065H128.781C129.125 15.0663 129.462 14.9489 129.746 14.7283C130.03 14.5077 130.249 14.1944 130.373 13.8297L133.931 2.63962H133.933Z" stroke="#FFFF00" stroke-width="2" stroke-linecap="round" stroke-linejoin="round"/>
<path d="M75.5467 2.63962C76.0969 0.992524 78.1789 0.992524 78.7308 2.63962L82.2896 13.8297C82.5389 14.5713 83.1733 15.065 83.8816 15.065H92.6275C94.2436 15.065 94.9484 17.3483 93.6779 18.4665L87.4542 24.8227C87.1755 25.0659 86.9717 25.4032 86.8723 25.786C86.7728 26.1689 86.7827 26.5777 86.9006 26.9537L89.1735 37.8881C89.7271 39.6445 87.9356 41.1531 86.5809 40.0719L78.1273 33.9831C77.8378 33.7522 77.4926 33.6283 77.1388 33.6283C76.7849 33.6283 76.4397 33.7522 76.1502 33.9831L67.6967 40.0719C66.3436 41.1531 64.5504 39.6426 65.104 37.8881L67.3769 26.9537C67.4948 26.5777 67.5047 26.1689 67.4053 25.786C67.3058 25.4032 67.1021 25.0659 66.8233 24.8227L60.5996 18.4665C59.3274 17.3483 60.0357 15.065 61.6483 15.065H70.3942C70.7385 15.0663 71.0751 14.9489 71.3594 14.7283C71.6436 14.5077 71.8622 14.1944 71.9862 13.8297L75.545 2.63962H75.5467Z" stroke="#FFFF00" stroke-width="2" stroke-linecap="round" stroke-linejoin="round"/>
</svg>
